#!OML:ASF I:\Actors\actors\Patient Classification 2\Patient 1\Session 1\actor1.ASF
:FULLY-SPECIFIED
:DEGREES
461
root -0.634456 18.8992 4.80004 15.3619 27.0696 0.210935
lowerback 28.301 6.93564 16.0038
upperback 2.73106 15.1086 8.64518
thorax -10.8078 6.43723 -4.20286
lowerneck -13.2223 -6.27761 3.66959
upperneck 14.2687 -12.4987 21.4265
head 7.98173 -3.70467 5.13971
rclavicle -9.54166e-015 4.45278e-014
rhumerus 7.60154 -25.5512 -14.3302
rradius 37.342
rwrist 43.0543
rhand -16.4115 -44.0864
rfingers 7.12502
rthumb 9.80312 -73.8382
lclavicle -9.54166e-015 4.45278e-014
lhumerus -77.3861 38.2902 32.6479
lradius 65.7814
lwrist 81.9409
lhand -40.7259 -27.5185
lfingers 7.12502
lthumb -13.6674 2.01269
rfemur 0 0 0
rtibia 0
rfoot 0 0
rtoes 0
lfemur -31.768 -16.6123 -8.26419
ltibia 24.1911
lfoot -9.71595 2.24499
ltoes -56.9499
462
root -0.623572 18.9003 4.80998 15.3269 27.6282 0.396748
lowerback 28.166 6.74314 16.2822
upperback 2.71132 14.9331 8.70069
thorax -10.7363 6.3556 -4.20624
lowerneck -13.589 -6.41379 3.65267
upperneck 13.4995 -12.6534 22.0038
head 7.86401 -3.78048 5.29593
rclavicle 6.36111e-014 5.40694e-014
rhumerus 6.26631 -22.316 -11.721
rradius 36.2883
rwrist 38.0931
rhand -16.0713 -44.9358
rfingers 7.12502
rthumb 10.1314 -74.6719
lclavicle 6.36111e-014 5.40694e-014
lhumerus -77.9569 39.348 29.9251
lradius 68.5706
lwrist 84.9607
lhand -42.7627 -31.9581
lfingers 7.12502
lthumb -15.6298 -2.56946
rfemur 0 0 0
rtibia 0
rfoot 0 0
rtoes 0
lfemur -31.6912 -16.549 -8.56817
ltibia 24.1477
lfoot -9.53312 1.64821
ltoes -56.9857
463
root -0.614202 18.9004 4.81854 15.2811 28.1374 0.525352
lowerback 28.0331 6.7449 16.6712
upperback 2.5999 15.0909 8.95704
thorax -10.7637 6.41156 -4.14492
lowerneck -13.5314 -6.80283 2.73294
upperneck 12.6364 -12.9774 23.0029
head 7.74513 -3.98431 5.73091
rclavicle 3.65764e-014 -6.99722e-014
rhumerus 4.27949 -26.0989 -12.3759
rradius 37.3525
rwrist 40.8873
rhand -15.2391 -44.0595
rfingers 7.12502
rthumb 10.9342 -73.7548
lclavicle 3.65764e-014 -6.99722e-014
lhumerus -77.8724 39.8365 28.3695
lradius 71.4325
lwrist 87.4837
lhand -44.2966 -35.9279
lfingers 7.12502
lthumb -17.1067 -6.66099
rfemur 0 0 0
rtibia 0
rfoot 0 0
rtoes 0
lfemur -31.6392 -16.6359 -8.74952
ltibia 24.1108
lfoot -9.38104 1.24025
ltoes -57.0262
464
root -0.601929 18.9004 4.82373 15.3024 28.596 0.648921
lowerback 27.794 6.70968 17.0573
upperback 2.4575 15.1764 9.17639
thorax -10.7724 6.43586 -4.08679
lowerneck -13.3788 -7.15335 1.9027
upperneck 11.8312 -13.2331 23.7941
head 7.60452 -4.17161 6.09226
rclavicle -4.6118e-014 -4.13472e-014
rhumerus 2.56671 -23.7341 -10.1113
rradius 36.6517
rwrist 37.4105
rhand -15.4584 -45.2239
rfingers 7.12502
rthumb 10.7226 -74.9303
lclavicle -4.6118e-014 -4.13472e-014
lhumerus -78.1692 39.7088 27.4231
lradius 74.479
lwrist 90.4034
lhand -45.1101 -40.3405
lfingers 7.12502
lthumb -17.8896 -11.1433
rfemur 0 0 0
rtibia 0
rfoot 0 0
rtoes 0
lfemur -31.6726 -16.861 -8.86341
ltibia 24.0886
lfoot -9.26466 0.987516
ltoes -56.927
465
root -0.588883 18.9015 4.82645 15.3402 28.9857 0.761857
lowerback 27.5518 6.6703 17.5053
upperback 2.30194 15.258 9.3019
thorax -10.7501 6.45431 -4.15691
lowerneck -13.2559 -7.51424 1.53381
upperneck 11.0003 -13.5257 24.2516
head 7.41261 -4.38107 6.25508
rclavicle -7.79236e-014 -9.85972e-014
rhumerus 0.635206 -22.8792 -8.82778
rradius 36.5764
rwrist 35.8445
rhand -15.6248 -45.7631
rfingers 7.12502
rthumb 10.5621 -75.4777
lclavicle -7.79236e-014 -9.85972e-014
lhumerus -77.8205 40.1277 25.9264
lradius 77.5823
lwrist 92.6428
lhand -45.7429 -43.8968
lfingers 7.12502
lthumb -18.4984 -14.7564
rfemur 0 0 0
rtibia 0
rfoot 0 0
rtoes 0
lfemur -31.7198 -17.0158 -8.98164
ltibia 24.082
lfoot -9.16958 0.750072
ltoes -56.8242
466
root -0.576577 18.9029 4.83072 15.3369 29.2969 0.807464
lowerback 27.4567 6.57922 18.0882
upperback 1.74499 15.3632 9.28319
thorax -10.4407 6.46086 -4.26891
lowerneck -13.0651 -7.87778 1.39065
upperneck 10.0883 -13.799 24.4811
head 7.14653 -4.60415 6.30419
rclavicle 7.31528e-014 5.08889e-014
rhumerus -1.44202 -22.6295 -8.03741
rradius 36.8719
rwrist 35.0906
rhand -15.6539 -45.7959
rfingers 7.12502
rthumb 10.534 -75.5119
lclavicle 7.31528e-014 5.08889e-014
lhumerus -76.9566 41.0776 23.9514
lradius 80.99
lwrist 94.3168
lhand -46.5455 -46.1486
lfingers 7.12502
lthumb -19.2703 -17.0833
rfemur 0 0 0
rtibia 0
rfoot 0 0
rtoes 0
lfemur -31.7207 -17.0103 -9.08397
ltibia 24.0764
lfoot -9.09506 0.467871
ltoes -56.847
467
root -0.564455 18.9024 4.83632 15.3231 29.5088 0.822183
lowerback 27.2474 6.48316 18.4473
upperback 1.57361 15.3584 9.41955
thorax -10.4915 6.434 -4.26995
lowerneck -12.8227 -8.18473 0.840958
upperneck 9.4108 -14.0241 25.0128
head 7.00144 -4.78058 6.5399
rclavicle -6.67916e-014 -5.08889e-014
rhumerus -3.13997 -22.2075 -7.55247
rradius 37.0647
rwrist 34.3995
rhand -15.2037 -45.7917
rfingers 7.12502
rthumb 10.9683 -75.4852
lclavicle -6.67916e-014 -5.08889e-014
lhumerus -76.14 42.4807 21.4175
lradius 85.253
lwrist 95.6821
lhand -48.2468 -47.6974
lfingers 7.12502
lthumb -20.9055 -18.8039
rfemur 0 0 0
rtibia 0
rfoot 0 0
rtoes 0
lfemur -31.6919 -16.8958 -9.1875
ltibia 24.069
lfoot -9.04675 0.177429
ltoes -56.8556
468
root -0.553581 18.8991 4.8417 15.2888 29.6292 0.841126
lowerback 27.0191 6.39667 18.6651
upperback 1.45485 15.3155 9.60436
thorax -10.5301 6.40216 -4.14557
lowerneck -12.6885 -8.45282 0.236837
upperneck 8.87742 -14.219 25.403
head 6.91244 -4.93498 6.73984
rclavicle -7.95139e-015 5.08889e-014
rhumerus -4.58389 -21.7184 -7.21294
rradius 37.1351
rwrist 33.8925
rhand -14.5034 -45.6795
rfingers 7.12502
rthumb 11.6437 -75.336
lclavicle -7.95139e-015 5.08889e-014
lhumerus -75.5394 43.7175 19.144
lradius 88.7978
lwrist 96.6957
lhand -47.8232 -52.0826
lfingers 7.12502
lthumb -20.4985 -23.1447
rfemur 0 0 0
rtibia 0
rfoot 0 0
rtoes 0
lfemur -31.6245 -16.7913 -9.29167
ltibia 24.0694
lfoot -9.05523 -0.0584614
ltoes -56.7864
